<?xml version="1.0" encoding="UTF-8"?>
<!-- Created with Inkscape (http://www.inkscape.org/) -->
<svg width="142.87mm" height="26.194mm" version="1.1" viewBox="0 0 142.87 26.194" xmlns="http://www.w3.org/2000/svg" xmlns:cc="http://creativecommons.org/ns#" xmlns:dc="http://purl.org/dc/elements/1.1/" xmlns:rdf="http://www.w3.org/1999/02/22-rdf-syntax-ns#">
 <metadata>
  <rdf:RDF>
   <cc:Work rdf:about="">
    <dc:format>image/svg+xml</dc:format>
    <dc:type rdf:resource="http://purl.org/dc/dcmitype/StillImage"/>
    <dc:title/>
   </cc:Work>
  </rdf:RDF>
 </metadata>
 <g transform="translate(523.05 -138.54)">
  <path d="m-402.81 147.1 1.0941 1.311 0.33298-0.40134-1.0227-0.93645z" fill="#c8ab37" stroke="#000" stroke-width=".071351px"/>
  <flowRoot transform="scale(.26458)" fill="#000000" font-family="sans-serif" font-size="40px" letter-spacing="0px" word-spacing="0px" style="line-height:1.25" xml:space="preserve"><flowRegion><rect x="-842" y="314.52" width="589" height="293"/></flowRegion><flowPara/></flowRoot>
  <g transform="scale(.94283 1.0606)" fill="#c8ab37" stroke-width=".49136" aria-label="SHICKMO.IO">
   <path d="m-547.74 140.25q0-1.1793-0.80583-1.9262-0.78619-0.76653-1.6313-0.76653-0.33413 0-0.62895 0.0786-0.27517 0.0786-0.4324 0.17689-0.15724 0.0983-0.29482 0.17689-0.11793 0.0786-0.2162 0.0786-0.0786 0-0.13758-0.11793l-0.25551-0.41274q-0.17689-0.27517-0.41275-0.56998 0.8648-0.47171 1.9065-0.47171 0.84514 0 1.5527 0.27516 1.1006 0.51102 1.651 1.2186 0.55033 0.70757 1.0417 1.9655 0.0393 0.11793-0.0786 0.13758l-0.58964 0.11793-0.66826 0.19655q0-0.0786 0-0.15724zm-6.5057-0.0786q0-1.081 0.35378-1.7493 0.0393-0.0786 0.13758-0.0196l0.51102 0.29482 0.62895 0.31447q-0.11793 0.15724-0.2162 0.35378-0.0786 0.1769-0.13758 0.37344-0.0393 0.19655-0.0786 0.33413-0.0197 0.11793-0.0393 0.29482-0.0197 0.17689-0.0197 0.19654 0 0.51102 0.25551 0.92377 0.25551 0.39309 0.66826 0.62895 0.4324 0.23585 0.80584 0.39309 0.39309 0.13758 0.82549 0.25551 0.45205 0.0983 0.55033 0.13758 0.059 0.0196 0.0786 0.11793 0.0196 0.0983 0 0.13758l-0.19655 0.45205q-0.0983 0.27517-0.2162 0.66826l-0.72722-0.37344q-0.66826-0.33413-1.0417-0.55033-0.35379-0.2162-0.8255-0.56998t-0.72721-0.68791q-0.23586-0.33413-0.41275-0.82549-0.17689-0.51102-0.17689-1.1007zm1.0024-2.3782q-0.0393-0.0393-0.0983-0.0393t-0.0983 0.0197h-0.0393q0.0393-0.15723 0.23585-0.35378 0.31447 0.23586 0.56998 0.53067l0.35379 0.37344q0.059 0.059 0.15723 0.0786 0.0786 0.0196-0.059 0.17689-0.0197 0.0197-0.0393 0.059l-0.60929-0.49136zm6.1322 9.4538q-0.0196-0.60929-0.11793-0.98273-0.0983-0.39309-0.35378-0.62895-0.23585-0.2555-0.4324-0.37343t-0.6486-0.29482q-0.0786-0.0393-0.11793-0.059-0.059-0.0197-0.0197-0.11793l0.25551-0.55033q0.0983-0.25551 0.2162-0.66826 2.2013 0.70757 2.2013 3.3806 0 0.96308-0.25551 1.7689-0.23586 0.78619-0.41275 1.0614-0.17689 0.25551-0.33412 0.41275-0.059 0.059-0.15724 0.059-0.0983-0.0197-0.13758-0.0786l-0.31448-0.35378-0.49136-0.51102q0.55033-0.45205 0.80584-0.8648 0.25551-0.4324 0.31447-1.1989zm-2.2996-2.791q-0.0196 0.0786-0.0196 0.13758 0.0196 0.0393 0.0393 0.059l0.0393 0.0393q-0.13758 0-0.37344-0.0983 0.11793-0.39309 0.25551-0.72722l0.2162-0.47171q0.0197-0.059 0-0.0983 0-0.059-0.0196-0.0983l-0.0197-0.0197q0.0197 0 0.0197 0 0.11792 0 0.33412 0.0786-0.11792 0.41275-0.25551 0.72722zm-1.2186 5.6802q0.23586 0 0.47171-0.0197 0.23586-0.0393 0.35378-0.0786 0.13758-0.0393 0.23586-0.059 0.11792-0.0197 0.15723-0.0197 0.059 0 0.0786 0.059l0.13758 0.58963q0.0983 0.31448 0.25551 0.66826-0.0393 0.11793-0.60929 0.11793-0.8648 0-1.9262-0.29482-1.0417-0.29482-1.592-0.88446-0.6486-0.60929-1.0024-1.14-0.35378-0.53068-0.6486-1.3758l-0.0393-0.13759q-0.0197-0.0983 0.0393-0.17689 0.059-0.0983 0.11793-0.0983l0.49136-0.0786q0.25551-0.0393 0.66826-0.17689 0.13758 0.98273 0.33412 1.4741 0.19655 0.49137 0.68791 0.98273 0.80584 0.6486 1.7886 0.6486zm1.8672-0.25551q-0.059-0.0983-0.1769-0.11792 0.059-0.0786 0.23586-0.17689l0.4324 0.62894 0.23585 0.47171q0.0393 0.0393 0.0786 0.059 0.059 0.0197 0.0983 0.0197h0.059q-0.0983 0.13758-0.35378 0.25551-0.2162-0.31447-0.39309-0.66826z" style="font-feature-settings:normal;font-variant-caps:normal;font-variant-ligatures:normal;font-variant-numeric:normal"/>
   <path d="m-542.85 140.32q0 0.60929 0.11793 1.592t0.11793 1.0024q0 0.0393-0.0197 0.059l4.4223 0.2162q0.60929 0 1.1006-0.0197 0.51102-0.0393 1.1793-0.0983 0.66825-0.0786 0.94342-0.0983l0.17689-2.6534-0.15724-3.5771-0.0196-0.0393q0-0.0786 0.11792-0.0786l0.58964 0.0196 0.70757-0.0393-0.25551 3.7147q0 0.51102 0.0393 1.022 0.059 0.51102 0.0983 0.80583 0.059 0.27517 0.0786 0.51102 0.0393 0.23586-0.0197 0.33413-0.0393 0.0983-0.17689 0.0983l-0.47171-0.0197-0.11793 0.0197q0.0197 0.0393 0.0197 0.0786v0.47171q0 0.059 0 0.0983h0.0983l0.53067 0.0197q0.11793 0 0.1769-0.11793 0.059 0.0983 0.059 0.33413l-0.76653 0.0393h-0.0786q0 0.0786 0.0393 0.33413l-3.8916-0.17689-4.9726 0.15723-0.0393 0.0197q-0.0983 0-0.0983-0.11793v-0.2162l-0.51101-0.0197q-0.059 0-0.0983 0.0393-0.0393 0.0197-0.059 0.059l-0.0197 0.0197q-0.059-0.0983-0.059-0.33413l0.76653-0.0393v-0.0983q0-0.29482-0.0393-0.55033l-0.66826 0.0393 0.1769-2.8106-0.15724-3.5771-0.0197-0.0393q0-0.0786 0.11793-0.0786l0.58964 0.0196 0.70756-0.0393zm0 8.0191q0 0.62894 0.11793 1.6117 0.11793 0.96308 0.11793 0.98273 0 0.0786-0.0786 0.13758-0.059 0.0393-0.11793 0.0393h-0.49136l-0.70757 0.0393 0.1769-2.8106-0.15724-3.5771-0.0197-0.0393q0-0.059 0.11793-0.059l0.58964 0.0196 0.70756-0.059zm7.8618-3.6164q0-0.059 0.11792-0.059l0.58964 0.0196 0.70757-0.059-0.25551 3.7147q0 0.51102 0.0393 1.022 0.059 0.51102 0.0983 0.80584 0.059 0.27517 0.0786 0.51102 0.0393 0.23586-0.0197 0.33413-0.0393 0.0983-0.17689 0.0983h-0.47171l-0.70756 0.0393 0.17689-2.8106-0.15724-3.5771z" style="font-feature-settings:normal;font-variant-caps:normal;font-variant-ligatures:normal;font-variant-numeric:normal"/>
   <path d="m-529.41 140.32q0 0.60929 0.11793 1.592t0.11793 1.0024q0 0.059-0.0786 0.11793-0.059 0.059-0.11793 0.059l-0.49136-0.0197-0.70757 0.059 0.17689-2.8106-0.15723-3.5771-0.0197-0.0393q0-0.0786 0.11793-0.0786l0.58964 0.0196 0.70756-0.0393zm0 8.0191q0 0.62894 0.11793 1.6117 0.11793 0.96308 0.11793 0.98273 0 0.0786-0.0786 0.13758-0.059 0.0393-0.11793 0.0393h-0.49136l-0.70757 0.0393 0.17689-2.8106-0.15723-3.5771-0.0197-0.0393q0-0.059 0.11793-0.059l0.58964 0.0196 0.70756-0.059zm-0.98273-4.3437q-0.059 0-0.0983 0.0393-0.0393 0.0197-0.059 0.059l-0.0197 0.0197q-0.059-0.0983-0.059-0.33413l0.76653-0.0393 0.53067 0.0197q0.059 0 0.0983-0.0197 0.0393-0.0393 0.059-0.0786l0.0196-0.0197q0.059 0.0983 0.059 0.33413l-0.76652 0.0393z" style="font-feature-settings:normal;font-variant-caps:normal;font-variant-ligatures:normal;font-variant-numeric:normal"/>
   <path d="m-512.91 139.87q0.059 0.0786-0.0197 0.13759l-0.51101 0.31447q-0.23586 0.15724-0.56999 0.4324-0.27516-0.6486-0.6486-1.14-0.35378-0.51102-0.72722-0.80583-0.37343-0.29482-0.72722-0.49137-0.35378-0.2162-0.70756-0.31447-0.35378-0.0983-0.58964-0.13758-0.23585-0.0393-0.47171-0.0393-0.2162 0-0.2162 0-0.059-0.0197-0.0983-0.0983-0.0197-0.0786-0.0197-0.13758l0.0786-0.47171q0.0393-0.31447 0.0393-0.70756 0.92377 0.2162 1.7493 0.62894 0.84514 0.3931 1.533 0.96308 0.68792 0.56998 1.0417 0.94342 0.37343 0.37343 0.8648 0.92376zm-12.481-0.4324q0.62895-0.70756 1.4151-1.2776 0.78618-0.56998 1.4348-0.8648 0.66825-0.31447 1.3168-0.53067t0.94342-0.27516q0.31448-0.0786 0.4324-0.0983 0.0786 0 0.0786 0.0983l0.0393 0.60929 0.0983 0.68791q-0.19654-0.0197-0.39309-0.0197-0.19654 0-0.39309 0.0197t-0.35378 0.059q-0.15724 0.0197-0.37344 0.0786-0.19655 0.059-0.31447 0.0983-0.11793 0.0197-0.35379 0.11793-0.2162 0.0983-0.29481 0.13758-0.0786 0.0197-0.33413 0.13758-0.25551 0.0983-0.31448 0.11793-0.4324 0.27517-0.70756 0.58964t-0.49136 0.6486q-0.19655 0.33413-0.19655 0.35378-0.0786 0.0983-0.25551-0.0197l-0.39309-0.29482q-0.25551-0.17689-0.58964-0.37344zm6.3484-2.9089q0-0.059-0.0393-0.0983t-0.059-0.059l-0.0393-0.0197q0.11793-0.059 0.31447-0.059 0.0197 0 0.0393 0 0.0393 0.31447 0.0393 0.53067 0 0.11793 0 0.23586l-0.0393 0.53067q0 0.11793 0.0983 0.19655-0.0786 0.0393-0.29481 0.0393l-0.0393-0.76653zm-6.9184 10.613q-0.60929-1.6313-0.60929-3.6164 0-0.62894 0.0983-1.3168 0.11793-0.68791 0.19655-1.0024 0.0786-0.33412 0.11792-0.41274 0.0393-0.059 0.11793-0.0197l0.55033 0.25551 0.66825 0.25551q-0.35378 0.4324-0.53067 0.96308-0.15724 0.53067-0.19655 0.92376-0.0196 0.39309-0.0196 1.14 0.0393 0.33413 0.11793 0.6486 0.0786 0.31447 0.17689 0.51102 0.0983 0.19654 0.19654 0.37344 0.0983 0.17689 0.15724 0.29481 0.0786 0.0983 0.11793 0.19655 0.0393 0.0983 0 0.15724-0.0197 0.059-0.11793 0.0983l-0.4324 0.2162q-0.27516 0.11793-0.60929 0.33413zm0.27516-6.8988q-0.059-0.0197-0.11792-0.0197-0.0393 0-0.0786 0.0197l-0.0197 0.0196q0-0.11792 0.11793-0.31447 0.35378 0.15724 0.66826 0.35378l0.45205 0.27517q0.0983 0.059 0.19655 0.0197 0 0.0983-0.0786 0.25551l-0.68791-0.33413zm0.58964 8.2549q-0.0786-0.059 0.0196-0.13758l0.47171-0.35378 0.55033-0.45206q0.31448 0.68791 0.84515 1.14 0.53067 0.45205 1.3562 0.94342 0.39309 0.17689 0.78618 0.25551 0.39309 0.0786 0.58964 0.0786 0.19654 0 0.76652 0.0196h0.0983q0.059 0 0.0983 0.0786t0.0393 0.13758l-0.0393 0.47171q-0.0196 0.19655-0.0196 0.33413 0 0.0983 0.0196 0.37344-0.55033-0.0786-1.022-0.2162-0.47171-0.11793-0.78618-0.23586-0.29482-0.11793-0.94342-0.41275-0.92377-0.45205-1.5134-0.8648-0.58964-0.4324-1.3169-1.1596zm-0.29482-0.68791q-0.0393 0.0197-0.0786 0.0786-0.0196 0.0393 0 0.0786v0.0393q-0.11792-0.059-0.23585-0.25551 0.31447-0.23586 0.62894-0.4324l0.47171-0.25551q0.0983-0.059 0.0983-0.17689 0.0786 0 0.19654 0.19654l-0.62894 0.45206zm7.6456 3.4592q-0.0983 0.0393-0.11792-0.0786l-0.0983-0.58964-0.15723-0.68791q1.1006-0.0393 2.9482-1.1203 0.35378-0.33413 0.58964-0.66825 0.23585-0.33413 0.39309-0.68791 0.15724-0.35379 0.15724-0.37344 0.0196-0.0393 0.0983-0.0393 0.0983 0 0.15724 0.0393l0.41274 0.23585q0.27517 0.15724 0.6486 0.29482-0.41274 0.58964-0.76652 0.94342-0.33413 0.35378-1.0614 1.0024-0.84515 0.66825-1.5134 1.0417-0.66826 0.37344-1.6903 0.68791zm-0.82549-0.059q0 0.11792 0.13758 0.17689-0.11793 0.059-0.37343 0.0786-0.059-0.39309-0.0786-0.76652l0.0197-0.53068q-0.0197-0.11792-0.11793-0.17689 0.0786-0.059 0.29482-0.0786l0.0983 0.76653z" style="font-feature-settings:normal;font-variant-caps:normal;font-variant-ligatures:normal;font-variant-numeric:normal"/>
   <path d="m-508.97 140.34q0 0.62895 0.11793 1.6117 0.11793 0.96307 0.11793 0.98273 0 0.0786-0.0786 0.13758-0.059 0.0393-0.13758 0.0393h-0.47171l-0.70757 0.0393 0.17689-2.8106-0.15723-3.5575-0.0197-0.0393q0-0.0786 0.11793-0.0786l0.58964 0.0196 0.70756-0.0393zm0 8.0191q0 0.60929 0.11793 1.592 0.11793 0.96308 0.11793 0.98273 0 0.0786-0.0786 0.13758-0.059 0.0393-0.13758 0.0393h-0.47171l-0.70757 0.0393 0.17689-2.791-0.15723-3.5771-0.0197-0.0393q0-0.0786 0.11793-0.0786l0.58964 0.0196 0.70756-0.0393-0.0393 0.49136 0.53068-0.56998q0.53067-0.6486 0.94342-1.2186 0.4324-0.56998 0.56998-0.78618t0.29482-0.47171q0.11792-0.19655 0.15723-0.2162 0.0393-0.0197 0.0983 0.0393l0.45205 0.39309q0.23586 0.17689 0.58964 0.41275l-0.90411 0.88445 2.0637 2.9678 3.243 4.0095q0.0786 0.11793 0 0.17689l-0.49137 0.33413q-0.23585 0.17689-0.53067 0.49136-1.7493-2.7516-3.0072-4.4026-0.3931-0.51102-0.74688-0.90411-0.33413-0.41275-0.80584-0.92377-0.45205-0.51102-0.66825-0.74687-0.41275 0.47171-0.74688 0.92376-0.33412 0.45206-0.51101 0.74688-0.15724 0.29481-0.29482 0.53067-0.11793 0.2162-0.2162 0.33413-0.0786 0.0983-0.15724 0.0786zm-0.98273-4.3437q-0.059 0-0.0983 0.0393-0.0393 0.0197-0.059 0.059l-0.0197 0.0197q-0.059-0.0983-0.059-0.33413l0.76653-0.0393 0.53067 0.0196q0.059 0 0.0983-0.0196 0.0393-0.0393 0.059-0.0786l0.0197-0.0197q0.059 0.0983 0.059 0.33412l-0.76653 0.0393zm6.3288-5.1495q0.62894-0.76653 1.1203-1.4544 0.49136-0.68791 0.66825-0.96307 0.1769-0.27517 0.2162-0.27517t0.0786 0.0393l0.45206 0.39309q0.2162 0.17689 0.56998 0.41275l-2.3389 2.4765q-0.3931 0.47171-0.8255 1.1989-0.41274 0.72721-0.47171 0.78618-0.0393 0.059-0.13758 0.059-0.0786-0.0196-0.11793-0.059l-0.37343-0.31447q-0.23586-0.1769-0.58964-0.41275zm-2.103 2.6337q-0.0393-0.0393-0.0983-0.0393-0.059-0.0196-0.0786 0h-0.0393q0.0197-0.11792 0.15723-0.27516l0.62895 0.45206 0.39309 0.33412q0.0393 0.0393 0.0786 0.059 0.059 0 0.0983 0l0.0393-0.0197q-0.0196 0.11793-0.15723 0.27517l-0.62895-0.45206z" style="font-feature-settings:normal;font-variant-caps:normal;font-variant-ligatures:normal;font-variant-numeric:normal"/>
   <path d="m-498.28 147.44q0-0.6093-0.11793-1.592-0.11792-0.98273-0.11792-1.0024 0-0.059 0.059-0.11793 0.0786-0.059 0.15724-0.059l0.47171 0.0196 0.70756-0.059-0.17689 2.8106 0.15724 3.5771 0.0197 0.0393q0 0.0786-0.11793 0.0786l-0.58963-0.0197-0.70757 0.0393q0.25551-2.2603 0.25551-3.7147zm1.1596-10.751q0.27517-0.11793 0.68791-0.35378l1.3365 3.813q0.29482 0.68791 0.78619 1.5527 0.49136 0.8648 0.53067 0.96307 0.0197 0.059-0.0197 0.13759-0.0393 0.0786-0.0983 0.0983l-0.45205 0.17689q-0.27517 0.11793-0.62895 0.33413l-1.022-2.8892-1.1989-2.5354-0.0983 1.4348 0.15724 3.5771 0.0197 0.0393q0 0.059-0.11793 0.059l-0.58963-0.0197-0.70757 0.059q0.25551-2.2603 0.25551-3.7147 0-0.62895-0.11793-1.592-0.11792-0.98273-0.11792-1.0024 0-0.0786 0.059-0.11792 0.0786-0.059 0.15724-0.059h0.47171l0.70756-0.0393zm-0.17689 7.0756q0.059 0 0.0983-0.0197 0.0393-0.0393 0.059-0.0786l0.0197-0.0197q0.059 0.0983 0.059 0.33413l-0.76653 0.0393-0.53068-0.0197q-0.059 0-0.0983 0.0393-0.0393 0.0197-0.059 0.059l-0.0197 0.0197q-0.059-0.0983-0.059-0.33413l0.76653-0.0393zm6.3484 7.3312q-0.25551 0.11793-0.6486 0.33413l-1.022-2.8696-1.6706-3.5182q-0.0393-0.0983 0.059-0.15724l0.55033-0.19655q0.27517-0.11792 0.62895-0.33412l1.3365 3.813q0.29482 0.68791 0.74687 1.4937 0.84515-1.6313 1.2382-2.6534 0.41275-1.0417 0.53068-1.6117 0.13758-0.58964 0.23585-0.82549 0.0393-0.059 0.11793-0.0786 0.0983-0.0393 0.15724-0.0197l0.4324 0.19655q0.27516 0.11793 0.66825 0.23586l-1.3168 2.732-1.3562 3.6558q-0.0197 0.0983-0.11793 0.059l-0.55033-0.23586zm4.0292-7.8422q-0.0197 0.11793-0.11793 0.0786l-0.55033-0.25551q-0.27516-0.11793-0.66825-0.23586l1.7689-3.6164q0.29482-0.68791 0.55033-1.6313 0.27516-0.94342 0.31447-1.0614 0.0393-0.0983 0.19655-0.0983 0.0393 0 0.0786 0.0197l0.43241 0.17689 0.0983 0.059q0.0786-0.0786 0.15723-0.0786h0.49137l0.70756-0.0393-0.17689 2.8106 0.15724 3.5968 0.0197 0.0393q0 0.059-0.11792 0.059l-0.58964-0.0197-0.70757 0.059 0.25551-3.7344q0-0.66826-0.11792-1.5134l-0.84515 1.7296zm-0.47171 0.68791q0.059 0.0197 0.0983 0.0197 0.059-0.0197 0.0983-0.0393l0.0393-0.0197q0 0.11793-0.0983 0.35378-0.39309-0.0983-0.72722-0.23585l-0.47171-0.23586q-0.059-0.0196-0.11793 0-0.0393 0-0.0786 0.0393l-0.0197 0.0197q-0.0197-0.13758 0.0786-0.37344 0.39309 0.11793 0.72722 0.25551zm-7.056 0.27517q-0.059 0.0197-0.0983 0.0786-0.0197 0.0393-0.0197 0.0786v0.0393q-0.0983-0.0983-0.19655-0.33413 0.35378-0.19654 0.68791-0.33412l0.49137-0.1769q0.059-0.0393 0.0786-0.0786 0.0393-0.0393 0.0393-0.0786v-0.0393q0.0983 0.0786 0.19655 0.31447-0.35378 0.19655-0.68791 0.33413zm10.987 6.8398q0 0.0786-0.11792 0.0786l-0.58964-0.0197-0.70757 0.0393q0.25551-2.2603 0.25551-3.7147 0-0.53068-0.059-1.0417-0.0393-0.51102-0.0983-0.78618-0.0393-0.29482-0.0786-0.53067-0.0197-0.23586 0.0197-0.33413 0.0393-0.0983 0.17689-0.0983l0.49137 0.0197 0.70756-0.059-0.17689 2.8303 0.15724 3.5771zm-0.17689-7.3115q0.059 0 0.0983-0.0197 0.0393-0.0393 0.059-0.0786l0.0197-0.0393q0.059 0.11793 0.059 0.35379l-0.76653 0.0393-0.53067-0.0197q-0.11793 0-0.1769 0.11793-0.059-0.0983-0.059-0.33413l0.76653-0.0393z" style="font-feature-settings:normal;font-variant-caps:normal;font-variant-ligatures:normal;font-variant-numeric:normal"/>
   <path d="m-469.28 138.95q-0.53067-0.39309-1.022-0.62895-0.49136-0.23585-0.80584-0.31447-0.29481-0.0786-0.55032-0.0983-0.23586-0.0393-0.33413-0.059-0.0983-0.0393-0.0786-0.11793l0.11793-0.58963q0.0786-0.29482 0.0983-0.68791 0.0197-0.0393 0.56998 0.19654 0.56999 0.23586 1.3562 0.66826t1.2579 0.84514q0 0 0.13758 0.13759 0.15724 0.11792 0.31448 0.23585 0.15723 0.11793 0.37343 0.31447 0.23586 0.19655 0.41275 0.37344 0.19655 0.15724 0.35378 0.33413 0.17689 0.17689 0.25551 0.29482 0.0197 0.0393-0.0197 0.13758-0.0197 0.0786-0.0786 0.0983l-0.41275 0.25551-0.58963 0.39309q-0.33413-0.66825-0.6093-1.022-0.2555-0.35379-0.74687-0.76653zm-3.3413-1.3758q-0.0197 0.11792 0.0786 0.19654-0.0983 0.0393-0.29482 0.0197l0.0197-0.76653 0.0786-0.51102q0-0.059-0.0393-0.0983-0.0197-0.059-0.0393-0.0786l-0.0393-0.0197q0.0786-0.0393 0.19654-0.0393 0.059 0 0.15724 0 0 0.41274-0.0393 0.78618zm4.6385 9.4145q0.33413-0.51102 0.51102-0.82549 0.19655-0.33413 0.35378-0.94342 0.1769-0.60929 0.1769-1.3169 0-0.45205-0.059-0.84515-0.059-0.39309-0.13758-0.56998-0.0786-0.19654-0.15724-0.37343-0.0786-0.1769-0.0786-0.19655 0-0.0393 0.059-0.11793l0.56998-0.17689q0.31447-0.0983 0.66826-0.27516l0.17689 2.3782q-0.059 1.0417-0.35378 2.2799-0.27517 1.2186-0.43241 1.5134-0.0197 0.059-0.11792 0.0786-0.0983 0-0.13758-0.0393l-0.41275-0.25551zm0.55033-5.6998q-0.11793 0.0393-0.13758 0.15724-0.0786-0.059-0.15724-0.2162l0.66826-0.37344 0.47171-0.2162q0.059-0.0197 0.0786-0.059 0.0393-0.059 0.0393-0.0983v-0.0393q0.0983 0.0786 0.19654 0.29481-0.33413 0.19655-0.66825 0.35379zm-5.1888 8.8249q0.70757 0 1.3758-0.2162 0.66826-0.2162 1.081-0.49137 0.41275-0.27516 0.76653-0.62894 0.37344-0.37344 0.49137-0.51102 0.11793-0.15724 0.17689-0.23586v-0.0197q0.0197-0.0393 0.0983 0.0393l0.45206 0.41274q0.2162 0.19655 0.55033 0.4324 0.0197 0.0393-0.45206 0.3931-0.47171 0.35378-1.2382 0.80583-0.74687 0.4324-1.3562 0.64861-1.9458 0.72721-2.4765 0.74687-0.059 0-0.11793-0.0786-0.059-0.059-0.059-0.13758v-0.47171l-0.0393-0.70757q0.47171 0.0197 0.74687 0.0197zm4.383-2.4372q-0.0983-0.059-0.19654-0.0393 0-0.0983 0.11792-0.23585l0.64861 0.41274 0.41274 0.31448q0.0393 0.0197 0.0983 0.0393 0.059 0 0.0983-0.0197l0.0196-0.0197q-0.0196 0.11792-0.13758 0.31447-0.35378-0.2162-0.6486-0.4324zm-6.4664 2.2799q0.0786 0.0197 0.059 0.11793l-0.13758 0.58964q-0.059 0.29482-0.0983 0.68791-0.0197 0.0393-0.58964-0.19655-0.55033-0.23585-1.3169-0.66825-0.76653-0.45206-1.2186-0.88446-0.059-0.0393-0.33413-0.25551-0.25551-0.2162-0.4324-0.35378-0.15724-0.15724-0.41275-0.37344-0.23585-0.2162-0.41274-0.39309-0.15724-0.17689-0.23586-0.31447-0.0393-0.059 0-0.13759 0.0393-0.0786 0.0786-0.11792l0.4324-0.23586 0.56998-0.39309q0.35379 0.66826 0.6093 1.0417 0.2555 0.35379 0.74687 0.78619 0.68791 0.53067 1.2579 0.76652 0.58964 0.23586 1.4348 0.33413zm0.58963 0.27517q0.0197-0.11793-0.0786-0.19655 0.0983-0.0393 0.29481-0.0196l-0.0197 0.76652-0.059 0.51102q-0.0197 0.13759 0.0983 0.19655-0.0786 0.0393-0.19655 0.0393-0.059 0-0.15723 0 0-0.39309 0.0393-0.76653zm-4.6974-9.4735q-0.55033 0.80584-0.78618 1.4151-0.2162 0.58964-0.2162 1.5527 0 0.4324 0.0786 0.84515 0.0786 0.39309 0.15724 0.60929 0.0983 0.19655 0.17689 0.39309 0.0786 0.19655 0.0786 0.25551 0.0197 0.0393-0.059 0.11793l-0.55033 0.17689q-0.31447 0.0983-0.66826 0.27516l-0.11792-3.6951q0.35378-2.0048 0.60929-2.4765 0.0197-0.059 0.11792-0.059 0.0983-0.0197 0.13759 0.0197l0.41274 0.25551zm-0.4324 5.7195q0.11793-0.059 0.13758-0.17689 0.0786 0.059 0.15724 0.23586l-0.66826 0.37343-0.47171 0.2162q-0.059 0.0197-0.0983 0.0786-0.0197 0.0393-0.0197 0.059v0.0393q-0.0983-0.0786-0.19654-0.27516 0.33413-0.19655 0.68791-0.35378zm5.0905-8.8052q-0.70756 0-1.3758 0.23586-0.6486 0.2162-1.081 0.49136-0.41274 0.25551-0.78618 0.60929t-0.49137 0.51102q-0.0983 0.13758-0.15723 0.23586-0.0393 0.0393-0.11793-0.0393l-0.4324-0.41275q-0.23585-0.2162-0.55033-0.45206-0.0393-0.0393 0.4324-0.39309 0.49137-0.35378 1.2579-0.76653 0.76652-0.4324 1.3758-0.6486 1.9851-0.70756 2.4765-0.72722 0.059 0 0.11793 0.0786 0.059 0.059 0.059 0.13758v0.47171l0.0393 0.70757q-0.49136-0.0393-0.76653-0.0393zm-4.4026 2.3979q0.0983 0.0786 0.19654 0.0393 0 0.0983-0.11792 0.25551l-0.6486-0.41275-0.41275-0.31447q-0.0393-0.0393-0.0983-0.0393t-0.0786 0l-0.0393 0.0197q0.0197-0.11792 0.15724-0.29482 0.33412 0.19655 0.62894 0.41275z" style="font-feature-settings:normal;font-variant-caps:normal;font-variant-ligatures:normal;font-variant-numeric:normal"/>
   <path d="m-462.67 150.09q0-0.70756-0.1769-1.3758l0.11793-0.0196h0.58964l0.70756-0.0197q-0.25551 0.86481-0.25551 1.4151 0 0.23586 0.11793 0.6093 0.11793 0.35378 0.11793 0.37343 0 0.059-0.19655 0.059h-0.49136l-0.70757 0.0197q0.0197-0.11793 0.0786-0.33413 0.059-0.2162 0.0786-0.37343 0.0197-0.15724 0.0197-0.35379z" style="font-feature-settings:normal;font-variant-caps:normal;font-variant-ligatures:normal;font-variant-numeric:normal"/>
   <path d="m-456.75 140.32q0 0.60929 0.11793 1.592 0.11792 0.98273 0.11792 1.0024 0 0.059-0.0786 0.11793-0.059 0.059-0.11792 0.059l-0.49137-0.0197-0.70756 0.059 0.17689-2.8106-0.15724-3.5771-0.0197-0.0393q0-0.0786 0.11793-0.0786l0.58963 0.0196 0.70757-0.0393zm0 8.0191q0 0.62894 0.11793 1.6117 0.11792 0.96308 0.11792 0.98273 0 0.0786-0.0786 0.13758-0.059 0.0393-0.11792 0.0393h-0.49137l-0.70756 0.0393 0.17689-2.8106-0.15724-3.5771-0.0197-0.0393q0-0.059 0.11793-0.059l0.58963 0.0196 0.70757-0.059zm-0.98273-4.3437q-0.059 0-0.0983 0.0393-0.0393 0.0197-0.059 0.059l-0.0197 0.0197q-0.059-0.0983-0.059-0.33413l0.76653-0.0393 0.53068 0.0197q0.059 0 0.0983-0.0197 0.0393-0.0393 0.059-0.0786l0.0197-0.0197q0.059 0.0983 0.059 0.33413l-0.76653 0.0393z" style="font-feature-settings:normal;font-variant-caps:normal;font-variant-ligatures:normal;font-variant-numeric:normal"/>
   <path d="m-442.29 138.95q-0.53067-0.39309-1.022-0.62895-0.49137-0.23585-0.80584-0.31447-0.29482-0.0786-0.55033-0.0983-0.23585-0.0393-0.33413-0.059-0.0983-0.0393-0.0786-0.11793l0.11793-0.58963q0.0786-0.29482 0.0983-0.68791 0.0197-0.0393 0.56999 0.19654 0.56998 0.23586 1.3562 0.66826 0.78619 0.4324 1.2579 0.84514 0 0 0.13758 0.13759 0.15724 0.11792 0.31447 0.23585 0.15724 0.11793 0.37344 0.31447 0.23585 0.19655 0.41274 0.37344 0.19655 0.15724 0.35379 0.33413 0.17689 0.17689 0.25551 0.29482 0.0197 0.0393-0.0197 0.13758-0.0197 0.0786-0.0786 0.0983l-0.41274 0.25551-0.58964 0.39309q-0.33413-0.66825-0.60929-1.022-0.25551-0.35379-0.74688-0.76653zm-3.3413-1.3758q-0.0197 0.11792 0.0786 0.19654-0.0983 0.0393-0.29481 0.0197l0.0197-0.76653 0.0786-0.51102q0-0.059-0.0393-0.0983-0.0197-0.059-0.0393-0.0786l-0.0393-0.0197q0.0786-0.0393 0.19655-0.0393 0.059 0 0.15723 0 0 0.41274-0.0393 0.78618zm4.6385 9.4145q0.33412-0.51102 0.51102-0.82549 0.19654-0.33413 0.35378-0.94342 0.17689-0.60929 0.17689-1.3169 0-0.45205-0.059-0.84515-0.059-0.39309-0.13759-0.56998-0.0786-0.19654-0.15723-0.37343-0.0786-0.1769-0.0786-0.19655 0-0.0393 0.059-0.11793l0.56999-0.17689q0.31447-0.0983 0.66825-0.27516l0.17689 2.3782q-0.059 1.0417-0.35378 2.2799-0.27516 1.2186-0.4324 1.5134-0.0197 0.059-0.11793 0.0786-0.0983 0-0.13758-0.0393l-0.41275-0.25551zm0.55032-5.6998q-0.11792 0.0393-0.13758 0.15724-0.0786-0.059-0.15723-0.2162l0.66825-0.37344 0.47171-0.2162q0.059-0.0197 0.0786-0.059 0.0393-0.059 0.0393-0.0983v-0.0393q0.0983 0.0786 0.19654 0.29481-0.33412 0.19655-0.66825 0.35379zm-5.1888 8.8249q0.70756 0 1.3758-0.2162 0.66825-0.2162 1.081-0.49137 0.41274-0.27516 0.76653-0.62894 0.37343-0.37344 0.49136-0.51102 0.11793-0.15724 0.17689-0.23586v-0.0197q0.0197-0.0393 0.0983 0.0393l0.45205 0.41274q0.2162 0.19655 0.55033 0.4324 0.0197 0.0393-0.45206 0.3931-0.47171 0.35378-1.2382 0.80583-0.74688 0.4324-1.3562 0.64861-1.9458 0.72721-2.4765 0.74687-0.059 0-0.11793-0.0786-0.059-0.059-0.059-0.13758v-0.47171l-0.0393-0.70757q0.47171 0.0197 0.74688 0.0197zm4.383-2.4372q-0.0983-0.059-0.19655-0.0393 0-0.0983 0.11793-0.23585l0.6486 0.41274 0.41275 0.31448q0.0393 0.0197 0.0983 0.0393 0.059 0 0.0983-0.0197l0.0197-0.0197q-0.0197 0.11792-0.13759 0.31447-0.35378-0.2162-0.6486-0.4324zm-6.4664 2.2799q0.0786 0.0197 0.059 0.11793l-0.13758 0.58964q-0.059 0.29482-0.0983 0.68791-0.0197 0.0393-0.58964-0.19655-0.55033-0.23585-1.3168-0.66825-0.76653-0.45206-1.2186-0.88446-0.059-0.0393-0.33413-0.25551-0.25551-0.2162-0.4324-0.35378-0.15723-0.15724-0.41274-0.37344-0.23586-0.2162-0.41275-0.39309-0.15724-0.17689-0.23585-0.31447-0.0393-0.059 0-0.13759 0.0393-0.0786 0.0786-0.11792l0.4324-0.23586 0.56999-0.39309q0.35378 0.66826 0.60929 1.0417 0.25551 0.35379 0.74687 0.78619 0.68791 0.53067 1.2579 0.76652 0.58963 0.23586 1.4348 0.33413zm0.58964 0.27517q0.0197-0.11793-0.0786-0.19655 0.0983-0.0393 0.29482-0.0196l-0.0197 0.76652-0.059 0.51102q-0.0197 0.13759 0.0983 0.19655-0.0786 0.0393-0.19654 0.0393-0.059 0-0.15724 0 0-0.39309 0.0393-0.76653zm-4.6974-9.4735q-0.55032 0.80584-0.78618 1.4151-0.2162 0.58964-0.2162 1.5527 0 0.4324 0.0786 0.84515 0.0786 0.39309 0.15723 0.60929 0.0983 0.19655 0.1769 0.39309 0.0786 0.19655 0.0786 0.25551 0.0197 0.0393-0.059 0.11793l-0.55033 0.17689q-0.31447 0.0983-0.66825 0.27516l-0.11793-3.6951q0.35378-2.0048 0.60929-2.4765 0.0197-0.059 0.11793-0.059 0.0983-0.0197 0.13758 0.0197l0.41275 0.25551zm-0.4324 5.7195q0.11793-0.059 0.13758-0.17689 0.0786 0.059 0.15724 0.23586l-0.66825 0.37343-0.47171 0.2162q-0.059 0.0197-0.0983 0.0786-0.0197 0.0393-0.0197 0.059v0.0393q-0.0983-0.0786-0.19655-0.27516 0.33413-0.19655 0.68791-0.35378zm5.0905-8.8052q-0.70757 0-1.3758 0.23586-0.6486 0.2162-1.081 0.49136-0.41275 0.25551-0.78619 0.60929-0.37343 0.35378-0.49136 0.51102-0.0983 0.13758-0.15724 0.23586-0.0393 0.0393-0.11793-0.0393l-0.4324-0.41275q-0.23585-0.2162-0.55032-0.45206-0.0393-0.0393 0.4324-0.39309 0.49136-0.35378 1.2579-0.76653 0.76653-0.4324 1.3758-0.6486 1.9851-0.70756 2.4765-0.72722 0.059 0 0.11792 0.0786 0.059 0.059 0.059 0.13758v0.47171l0.0393 0.70757q-0.49137-0.0393-0.76653-0.0393zm-4.4026 2.3979q0.0983 0.0786 0.19655 0.0393 0 0.0983-0.11793 0.25551l-0.6486-0.41275-0.41275-0.31447q-0.0393-0.0393-0.0983-0.0393t-0.0786 0l-0.0393 0.0197q0.0197-0.11792 0.15724-0.29482 0.33413 0.19655 0.62895 0.41275z" style="font-feature-settings:normal;font-variant-caps:normal;font-variant-ligatures:normal;font-variant-numeric:normal"/>
  </g>
 </g>
 <g transform="translate(523.05 -138.54)">
  <path d="m-402.15 164.01s0.52648-3.9654 2.0352-3.9654l8.4536 1.7714s1.1484 0.22729 1.4984 0c0 0 1.0703-0.61539 1.0703-0.16054 0.48754-0.27422 0.73993 0.92618 0.44328 1.2096 0 0 0.17929 1.5087-0.40103 1.6837 0 0-2.4207 0.32471-2.4207 0 0 0-6.3665 0.32937-6.8736 0z" stroke="#000" stroke-width=".071351px"/>
 </g>
 <g transform="translate(523.05 -138.54)">
  <path d="m-392.75 157.29-6.826 1.9264s-2.2951 2.1215-2.8541 3.2107c0 0 1.3527 1.4498 0.82561 1.6087 0 0-1.9376 0.11679-3.9511-1.191 0 0-2.2706-0.89277-2.9618-0.89277 0 0-2.0944 0.3276-2.0944 0 0 0-1.4975-1.6421 0-2.0935l4.0433-1.0435 2.9968-2.2742 3.639-2.9164s2.0317-1.5495 2.6887-0.81045z" fill="#ececec"/>
 </g>
 <g transform="translate(523.05 -138.54)">
  <path d="m-409.4 148.8s3.493 7.3191 5.8694 6.6028c0 0 5.6192-1.2774 5.4341-1.638 0 0-0.047-2.4274-0.67538-2.8355l-4.8764-2.6591-5.7517 0.52974z" fill="#ececec"/>
 </g>
 <g transform="translate(523.05 -138.54)">
  <path d="m-401.41 164.09-1.6887-0.21404s1.5118-4.119 2.2242-4.3337l7.6225-3.0242 1.4508 1.5518s1.9829-0.31867 2.4736 0c0 0 1.5545 0.50735 2.611 1.6958l2.9782 1.3811s1.4592-0.3035 1.9265 0c0 0 0.98502 0.62675 1.1416 1.2843 0 0 0.62327 1.5981 0.41315 1.7346 0 0-1.8712 0.21291-2.5775 0l-4.8995-1.7613-1.7124-1.7124z" stroke="#000" stroke-width=".071351px"/>
 </g>
 <g transform="translate(523.05 -138.54)">
  <path d="m-381.69 161.98s0.4315-0.28046 0.24919-0.48554c0 0-0.66352-0.24172-0.60595 0z" fill="#ac9d93" stroke="#000" stroke-width=".071351px"/>
 </g>
 <g transform="translate(523.05 -138.54)">
  <path d="m-384.29 162.92s0.77775-1.3196 1.4641-1.3196c0 0 0.56823-0.10642 0.68631 0 0 0 1.0435 1.783 0.71088 1.9222 0 0-2.4827 0.5489-2.6857 0z" fill="#917c6f" stroke="#000" stroke-width=".051696px"/>
 </g>
 <g transform="translate(523.05 -138.54)">
  <path d="m-380.33 163.01s-0.64827 0.1681-0.50572 0.32845c0 0 0.50844 0.64876 0.57415 0.37291z" fill="#ac9d93" stroke="#000" stroke-width=".071351px"/>
 </g>
 <g transform="translate(523.05 -138.54)">
  <path d="m-381.22 162.08s-0.29559 0.57774 0.13761 0.57774c0 0 0.79176 0.40803 0.43677-0.28367 0 0-0.43572-0.6485-0.46547-0.52362z" fill="#ac9d93" stroke="#000" stroke-width=".071351px"/>
 </g>
 <g transform="translate(523.05 -138.54)">
  <path d="m-388.55 161.85c0.0418-0.17557-0.65268-0.19674-0.65268-0.19674s-0.0399 0.5172 0.26544 0.5172z" fill="#ac9d93" stroke="#000" stroke-width=".071351px"/>
 </g>
 <g transform="translate(523.05 -138.54)">
  <path d="m-388.42 162.4s-0.813-0.18143-0.85622 0c0 0 0.56072 0.58681 0.64641 0.41984z" fill="#ac9d93" stroke="#000" stroke-width=".071351px"/>
 </g>
 <g transform="translate(523.05 -138.54)">
  <path d="m-388.56 163.37s-0.6475-0.32519-0.78422-0.23639c0 0 0.14088 0.57687 0.29607 0.57687z" fill="#ac9d93" stroke="#000" stroke-width=".071351px"/>
 </g>
 <g transform="translate(523.05 -138.54)">
  <path d="m-407.38 150.04s-1.735-1.7537-2.3942-1.555c0 0-1.9881 0.21888-2.45 0.73851 0 0-2.0856 2.6288-2.0856 4.0638l1.2454 6.0905s0.41549 1.9836 1.1283 2.1985l1.2977 0.20953s-0.32543-1.9538 1.0027-1.9538c0 0 3.3999-0.53596 3.9936-1.2038 0 0 1.1644-1.5248 1.6164-1.8183l3.5432-2.5158s-0.38626-2.7256 0-3.4783c0 0 2.0313-0.10431 1.7807-1.1565 0 0-0.31905-1.5274-1.0163-1.9802 0 0-0.91989-0.48603-1.6682 0 0 0-1.0731 0.88294-1.0731 1.2072 0 0-1.6677 2.5819-2.2952 2.5819 0 0-2.1959 0.37446-2.6253-1.4283z"/>
 </g>
 <g transform="translate(523.05 -138.54)">
  <path d="m-398.74 149.24 2.9017 0.13378s1.4815-0.3168 1.6634-1.0803c0 0 0.49075-0.96242 1.3473-0.40611 0 0 1.2681 2.1174 1.2681 2.4708 0 0-0.0182 1.1023-0.35202 1.4779 0 0-1.046 0.19413-0.72626 0.81702 0 0 0.17528 0.69146-0.9038 1.0167 0 0-1.5039 0.0655-1.5039 0.45331l-2.1247-1.1105s-1.8628-0.93792-1.7581-1.1418l-0.66789-0.75781s1.0053-1.247 0.85623-1.8729z"/>
 </g>
 <g transform="translate(523.05 -138.54)" stroke="#000">
  <path d="m-392.77 148.76-1.4033 0.0803" fill="none" stroke-width=".071351px"/>
  <path d="m-393.95 149.48-0.0987 2.0345 0.39486 0.73982s0.0296-0.97456 0-1.0569c0 0 0.38362 0.78284 0.69826 0.64744l-0.50083-0.93809s-0.33456-0.73884-0.13743-0.82368c0 0 0.69798-0.49638 0.67619-0.62698" fill="#917c6f" stroke-width=".058972px"/>
 </g>
 <g transform="translate(523.05 -138.54)">
  <path d="m-393.99 148.06s0.40904 0.69688 0.34826 0.67856c0 0-0.60651 0.28541-0.53853 0z" fill="#ac9d93" stroke="#000" stroke-width=".071351px"/>
 </g>
 <g transform="translate(523.05 -138.54)">
  <path d="m-393.19 148.85s-0.0886 0.6563-0.23166 0.51147c0 0-0.61687 0.29268-0.49759 0.0293 0 0 0.60759-1.003 0.63279-0.46228" fill="#ac9d93" stroke="#000" stroke-width=".071351px"/>
 </g>
 <g transform="translate(523.05 -138.54)" stroke="#000" stroke-width=".071351px">
  <path d="m-393.46 149.86s0.79821-0.39167 0.83178-0.25072" fill="none"/>
  <path d="m-392.63 149.6s0.0472 0.59841-0.14253 0.59841l-0.68925-0.34769" fill="#ac9d93"/>
 </g>
 <g transform="translate(523.05 -138.54)">
  <path d="m-392.66 150.02s-0.73782 0.18821-0.62581 0.40646c0 0 0.73098 0.57957 0.73098 0.22033z" fill="#ac9d93" stroke="#000" stroke-width=".071351px"/>
 </g>
 <g transform="translate(523.05 -138.54)">
  <path d="m-395.49 147.45s0.68826 0.37362 0.88001 0l0.23784-2.9699s0.78973 0.19932 0.66903 0.43453c0 0-0.34536 0.36446-0.34536 1.4499l-0.10961 1.3798-0.33298 4.6555s-0.50397 0.60682-0.66149 0.42962l-0.78934-0.3226z" fill="#c8ab37" stroke="#000" stroke-width=".071351px"/>
 </g>
 <g transform="translate(523.05 -138.54)" fill="none" stroke="#000">
  <rect x="-395.47" y="148.51" width="1.0451" height=".9913" stroke-width=".087897"/>
  <g stroke-width=".046164">
   <rect x="-395.61" y="150.43" width=".37229" height=".35311"/>
   <rect x="-395.24" y="150.43" width=".37229" height=".35311"/>
   <rect x="-394.87" y="150.43" width=".37229" height=".35311"/>
   <rect x="-395.61" y="150.79" width=".37229" height=".35311"/>
   <rect x="-395.24" y="150.79" width=".37229" height=".35311"/>
   <rect x="-394.87" y="150.79" width=".37229" height=".35311"/>
   <rect x="-395.61" y="151.14" width=".37229" height=".35311"/>
   <rect x="-395.24" y="151.14" width=".37229" height=".35311"/>
   <rect x="-394.87" y="151.14" width=".37229" height=".35311"/>
  </g>
 </g>
 <g transform="translate(523.05 -138.54)" display="none">
  <path d="m-42.917 98.676c0.19618-0.73216-2.0289-0.54365-2.0289-0.54365 0 0.69454-2.1167 0.06615-2.1167 0.06615s-0.69049 2.688 0.62574 2.3353c0 0 1.4169 1.563 2.062 1.1905 0 0 3.4206-3.0483 1.4578-3.0483z" stroke="#000" stroke-width=".26458px"/>
 </g>
 <g transform="translate(523.05 -138.54)">
  <path d="m-405.85 148.79-1.9195-8.8572s-2.5902 1.6016-2.7601 1.7926l-1.1951 1.6598-1.1892 2.3813-0.99893 3.1304 0.0713 2.8629s1.6492-2.6222 2.5806-2.903l3.1038-0.0669h2.3071" fill="#ececec"/>
 </g>
 <g transform="translate(523.05 -138.54)">
  <path d="m-407.97 139.96s-2.3808 2.1496-1.742 3.3942l2.1463 4.9536s0.70527 1.5345 2.898 0.87354c0 0 3.5804-0.42401 2.4935-0.75162 0 0-1.2363-0.0314-1.8303-1.1888 0 0-0.0469-0.74379 1.1452-0.74379l1.2158 0.15177s1.1407-1.1787 0.73887-1.4397l-2.8081-3.5904s-2.5266-1.9459-2.6439-1.7172z" fill="#ececec"/>
 </g>
 <g transform="translate(523.05 -138.54)">
  <path d="m-406.81 139.82s-0.45077-0.92424-0.95731-1.0769c0 0-0.76174 0.0779-0.76174 0.22961 0 0 0.43717 0.93766 0.48929 0.95337l1.2298-0.10605z"/>
 </g>
 <g transform="translate(523.05 -138.54)">
  <path d="m-408.83 138.73s-0.55969-0.23294-0.62724-0.18907c0 0-0.73176 0.93917-0.57342 1.1173 0 0 0.15795 2.061 0.2925 2.061 0 0 0.0532 1.4339 0.32221 1.3528 0 0 0.78909-0.0595 0.74946-0.22591 0 0-0.50753-0.59666-0.14212-0.59666 0 0 0.31207-0.40548 0.14212-0.59666 0 0 0.11381-0.66431 0.28416-0.55367 0 0 0.26953 0.52277 0.36711 0.413 0 0 0.29212-0.68188 0.18984-0.79695 0 0-0.83934-2.3072-1.0046-1.9852z"/>
 </g>
 <g transform="translate(523.05 -138.54)">
  <path d="m-404.06 143.09s-0.39738 0.49855-0.39738 0.77429c0 0 0.26174 1.4583 0.42148 1.7695 0 0 0.72459-0.96597 0.59431-1.2198 0 0 0.1518-0.47357 0.0846-0.51722 0 0-0.52223-1.0102-0.70302-0.80677z"/>
 </g>
 <g transform="translate(523.05 -138.54)">
  <ellipse cx="-403.91" cy="144.09" rx=".26909" ry=".30271" fill="#fff"/>
  <ellipse cx="-403.82" cy="144.09" rx=".16397" ry=".18446"/>
  <ellipse cx="-403.74" cy="144.1" rx=".067272" ry=".075677" fill="#fff"/>
 </g>
 <path d="m122.34 6.8516s-0.38205-0.17714-0.4255-0.12826c0 0-0.55142-0.12021-0.55142-0.014 7e-3 0.10674 8e-3 -0.0354 6e-3 0.0275 0 0-0.20086 0.52608 0 0.65654 0 0 0.38207 0.28478 0.43847 0.28478 0 0 0.37988 0.0191 0.35018-0.10556 0 0 0.42617-0.70226 0.16728-0.70226"/>
</svg>
