<?xml version="1.0" encoding="UTF-8"?>
<!-- Created with Inkscape (http://www.inkscape.org/) -->
<svg width="152.45mm" height="28.017mm" version="1.1" viewBox="0 0 152.45 28.017" xmlns="http://www.w3.org/2000/svg" xmlns:cc="http://creativecommons.org/ns#" xmlns:dc="http://purl.org/dc/elements/1.1/" xmlns:rdf="http://www.w3.org/1999/02/22-rdf-syntax-ns#">
 <metadata>
  <rdf:RDF>
   <cc:Work rdf:about="">
    <dc:format>image/svg+xml</dc:format>
    <dc:type rdf:resource="http://purl.org/dc/dcmitype/StillImage"/>
    <dc:title/>
   </cc:Work>
  </rdf:RDF>
 </metadata>
 <g transform="translate(14.426 -95.469)">
  <path transform="scale(.26458)" d="m28.818 360.83-1.0332 0.30274-21.65 6.334-27.941 19.518 3.5879 9.5156h-17.199l-19.105 13.34 3.3809 21.186 34.729 35.656h34.154l0.68359-0.25-0.27539 0.25h247.75l8.998 0.0391 6.4043-0.0391h153.06l-0.11328-0.10546 0.2832 0.10546h34.154l49.609-35.656 3.3809-21.186-60.65-42.373-22.691-6.6367h-28.162l-2.2441 2.5703-1.7285 1.9766-4.9746-4.5469h-38.52l12.424 12.734 25.305 25.947h-12.283l-25.143-31.535-19.916-7.1465h-27.246l-1.8828 1.248-4.5391 3.0195-1.957-4.2676h-27.275l-5.1894 10.719-10.748-10.719h-77.68l-1.0703 3.9121-6.6152-3.9121h-27.121l-0.29492 0.11133 0.0742-0.11133h-85.432l-2.1465 1.9648-2.9316 2.6855-4.0527-4.6504zm94.99 15h0.42774l-19.725 31.053h-4.1074zm131.1 0 7.127 38.926-0.60937 1.2598zm1.3281 0h1.8242l21.273 21.209 10.27-21.209h8.2383l10.873 23.711-2.9707 6.7266-10.154-29.803-10.396 30.418h-2.1992zm-80.543 0.53906 0.71485 0.42188h-0.89258zm-30.465 3.0488-13.586 27.465h-5.2188l16.229-26.475zm207.88 0.94532 0.81836 0.29492 21.744 27.26-1.0078 1.1543-1.1562 1.3242zm-257.55 2.7168-19.141 24.625-0.71484-0.82226h-1.4648l11.879-13.27 3.1016-3.4551zm119.24 6.0078-0.18555 2.2012-0.47266 6.4902-2.3086-5.0293zm-169.33 10.984-11.768 12.082-1.3105 0.38281-2.2754 1.5898zm133.32 33.186h0.0859l-0.0957 0.33984s0.01-0.33233 0.01-0.33984zm28.854 0.78515-8e-3 0.0762-0.0195-0.043zm141.21 19.479 0.16015 0.38281c-0.25964-0.0282-0.27459-0.17769-0.16015-0.38281z" color="#000000" color-rendering="auto" dominant-baseline="auto" fill="#2f343f" image-rendering="auto" shape-rendering="auto" solid-color="#000000" style="font-feature-settings:normal;font-variant-alternates:normal;font-variant-caps:normal;font-variant-ligatures:normal;font-variant-numeric:normal;font-variant-position:normal;isolation:auto;mix-blend-mode:normal;shape-padding:0;text-decoration-color:#000000;text-decoration-line:none;text-decoration-style:solid;text-indent:0;text-orientation:mixed;text-transform:none;white-space:normal"/>
  <g fill="#eaeaeb">
   <path d="m7.9095 97.452-5.4177 1.585-5.8601 4.0943 0.78417 2.0808h5.613l-3.5605 2.8845h-3.9687l1.585-1.2072h-5.8317l-3.5231 2.4615 0.4316 2.7049h8.5597l7.3219-2.7049 5.8064-5.2026-1.2991-1.9908h-5.2529l2.9931-2.2796h3.3227l-1.0806 0.87544h5.1058l1.9155-1.7163-1.3802-1.585h-6.2642z" style="font-feature-settings:normal;font-variant-caps:normal;font-variant-ligatures:normal;font-variant-numeric:normal"/>
   <path d="m18.264 97.452-15.954 14.604h6.443l6.6666-6.8437h3.742s-6.1287 6.8437-6.1287 6.8437h6.443l11.35-14.604h-4.7152s-4.2139 4.7055-4.2139 4.7055h-3.5019s4.5837-4.7055 4.5837-4.7055h-4.7152z" style="font-feature-settings:normal;font-variant-caps:normal;font-variant-ligatures:normal;font-variant-numeric:normal"/>
   <path d="m31.768 97.452-11.005 14.604h6.443l9.2773-14.604h-4.7152z" style="font-feature-settings:normal;font-variant-caps:normal;font-variant-ligatures:normal;font-variant-numeric:normal"/>
   <path d="m40.523 97.452-4.1202 1.585-6.3215 10.314 2.6447 2.7049h8.5597l5.1084-2.7049 1.0719-3.6007h-5.697l-0.97613 2.3464h-3.9687l4.065-8.2187h3.3227l-0.74811 1.7983h5.2149l0.78568-2.6391-2.6772-1.585h-6.2642z" style="font-feature-settings:normal;font-variant-caps:normal;font-variant-ligatures:normal;font-variant-numeric:normal"/>
   <path d="m51.197 97.562-4.0025 14.604h6.443l1.0843-6.9617s3.1955 6.9617 3.1955 6.9617h6.443s-4.9079-8.4326-4.9079-8.4326 4.3069-6.1712 4.3069-6.1712h-4.7152s-3.878 4.7887-3.878 4.7887l0.74587-4.7887h-4.7152z" style="font-feature-settings:normal;font-variant-caps:normal;font-variant-ligatures:normal;font-variant-numeric:normal"/>
   <path d="m64.381 97.452 0.9459 14.604h6.443l-1.1545-6.3056s5.4343 6.3056 5.4343 6.3056 2.1548-6.3056 2.1548-6.3056 2.1483 6.3056 2.1483 6.3056h6.4198l-6.6971-14.604h-4.6981s-2.0437 4.2241-2.0437 4.2241l-4.2375-4.2241h-4.7152z" style="font-feature-settings:normal;font-variant-caps:normal;font-variant-ligatures:normal;font-variant-numeric:normal"/>
   <path d="m84.167 97.452-2.3848 1.585 4.9735 10.314 5.6075 2.7049h8.5592l2.1461-2.7049-8.2246-10.314-4.4131-1.585h-6.2638z" style="font-feature-settings:normal;font-variant-caps:normal;font-variant-ligatures:normal;font-variant-numeric:normal"/>
   <path d="m100.67 97.452 14.244 14.604h6.443l-15.972-14.604h-4.7152z" style="font-feature-settings:normal;font-variant-caps:normal;font-variant-ligatures:normal;font-variant-numeric:normal"/>
   <path d="m109.43 97.452-1.3801 1.585 11.511 10.314 7.3219 2.7049h8.5597l0.4316-2.7049-14.762-10.314-5.4177-1.585h-6.2642z" style="font-feature-settings:normal;font-variant-caps:normal;font-variant-ligatures:normal;font-variant-numeric:normal"/>
  </g>
  <path d="m113.99 99.878h3.3228l10.791 8.2187h-3.9687l-10.145-8.2187z" fill="#2f343f" style="font-feature-settings:normal;font-variant-caps:normal;font-variant-ligatures:normal;font-variant-numeric:normal"/>
  <path d="m102.93 107.69s3.5864 4.368 3.5864 4.368h7.1639s-4.1611-4.368-4.1611-4.368h-6.5893z" fill="#eaeaeb" style="font-feature-settings:normal;font-variant-caps:normal;font-variant-ligatures:normal;font-variant-numeric:normal"/>
  <path d="m87.531 100.1h3.3228s4.9491 8.2188 4.9491 8.2188h-3.9687l-4.3031-8.2188z" fill="#2f343f" style="font-feature-settings:normal;font-variant-caps:normal;font-variant-ligatures:normal;font-variant-numeric:normal"/>
 </g>
</svg>
