<?xml version="1.0" encoding="UTF-8"?>
<!-- Created with Inkscape (http://www.inkscape.org/) -->
<svg width="152.45mm" height="29.654mm" version="1.1" viewBox="0 0 152.45 29.654" xmlns="http://www.w3.org/2000/svg" xmlns:cc="http://creativecommons.org/ns#" xmlns:dc="http://purl.org/dc/elements/1.1/" xmlns:rdf="http://www.w3.org/1999/02/22-rdf-syntax-ns#">
 <metadata>
  <rdf:RDF>
   <cc:Work rdf:about="">
    <dc:format>image/svg+xml</dc:format>
    <dc:type rdf:resource="http://purl.org/dc/dcmitype/StillImage"/>
    <dc:title/>
   </cc:Work>
  </rdf:RDF>
 </metadata>
 <g transform="translate(117.05 -85.625)">
  <path d="m-94.996 85.625-0.27337 0.0801-5.7283 1.6759-7.3928 5.164 0.9493 2.5177h-4.5506l-5.055 3.5295 0.89452 5.6053 9.1886 9.434h9.0367l0.18087-0.0661-0.07286 0.0661h65.551l2.265 1.6474 1.8102-1.6474h40.496l-0.03-0.0279 0.0749 0.0279h9.0366l13.126-9.434 0.89452-5.6053-16.047-11.211-6.0038-1.756h-7.4512l-0.59376 0.68006-0.45734 0.52297-1.3162-1.203h-10.192l3.2871 3.3693 6.6952 6.8652h-3.2499l-6.6523-8.3437-5.2695-1.8908h-7.2089l-0.49816 0.33021-1.201 0.79892-0.5178-1.1291h-7.2166l-1.373 2.836-2.8438-2.836h-20.553l-0.28319 1.0351-1.7503-1.0351h-7.1758l-0.07803 0.02946 0.01963-0.02946h-22.604l-0.56793 0.51987-0.77566 0.71055-1.0723-1.2304zm25.133 3.9688h0.11317l-5.2188 8.216h-1.0868zm34.686 0 1.8857 10.299-0.16123 0.33332zm0.3514 0h0.48266l5.6286 5.6115 2.7171-5.6115h2.1797l2.8768 6.2735-0.786 1.7797-2.6867-7.8853-2.7507 8.0481h-0.58188zm-21.31 0.14263 0.18914 0.11162h-0.23616zm-8.0605 0.80667-3.5946 7.2667h-1.3808l4.2938-7.0047zm55.002 0.25012 0.21652 0.07803 5.7531 7.2125-0.26665 0.30541-0.30593 0.35037zm-68.145 0.71882-5.0643 6.5154-0.18914-0.21756h-0.38757l3.143-3.5109 0.82062-0.91416zm31.549 1.5896-0.04909 0.5824-0.12506 1.7172-0.61081-1.3307zm-44.803 2.9063-3.1135 3.1967-0.34675 0.10128-0.60203 0.42065zm35.275 8.7803h0.02273l-0.02532 0.0899s0.0026-0.0879 0.0026-0.0899zm7.6342 0.20774-0.0021 0.0202-0.0052-0.0114zm37.363 5.1537 0.0424 0.10129c-0.0687-8e-3 -0.0726-0.047-0.0424-0.10129z" color="#000000" color-rendering="auto" dominant-baseline="auto" fill="#2f343f" image-rendering="auto" shape-rendering="auto" solid-color="#000000" style="font-feature-settings:normal;font-variant-alternates:normal;font-variant-caps:normal;font-variant-ligatures:normal;font-variant-numeric:normal;font-variant-position:normal;isolation:auto;mix-blend-mode:normal;shape-padding:0;text-decoration-color:#000000;text-decoration-line:none;text-decoration-style:solid;text-indent:0;text-orientation:mixed;text-transform:none;white-space:normal"/>
  <g fill="#eaeaeb">
   <path d="m-94.712 87.609-5.4177 1.585-5.8601 4.0943 0.78417 2.0808h5.613l-3.5605 2.8845h-3.9687l1.585-1.2072h-5.8317l-3.5232 2.4615 0.4316 2.7049h8.5597l7.3219-2.7049 5.8064-5.2026-1.2991-1.9908h-5.2529l2.9931-2.2796h3.3227l-1.0806 0.87544h5.1058l1.9155-1.7163s-1.3801-1.585-1.3801-1.585h-6.2642z" style="font-feature-settings:normal;font-variant-caps:normal;font-variant-ligatures:normal;font-variant-numeric:normal"/>
   <path d="m-84.357 87.609-15.954 14.604h6.443s6.6666-6.8437 6.6666-6.8437h3.742s-6.1287 6.8437-6.1287 6.8437h6.443l11.35-14.604h-4.7152s-4.2139 4.7055-4.2139 4.7055h-3.5019s4.5838-4.7055 4.5838-4.7055h-4.7152z" style="font-feature-settings:normal;font-variant-caps:normal;font-variant-ligatures:normal;font-variant-numeric:normal"/>
   <path d="m-70.853 87.609-11.005 14.604h6.443l9.2773-14.604h-4.7152z" style="font-feature-settings:normal;font-variant-caps:normal;font-variant-ligatures:normal;font-variant-numeric:normal"/>
   <path d="m-62.099 87.609-4.1202 1.585-6.3215 10.314s2.6447 2.7049 2.6447 2.7049h8.5597l5.1084-2.7049s1.0719-3.6007 1.0719-3.6007h-5.697l-0.97613 2.3464h-3.9687s4.065-8.2187 4.065-8.2187h3.3227l-0.74811 1.7983h5.2149l0.78568-2.6391-2.6772-1.585h-6.2642z" style="font-feature-settings:normal;font-variant-caps:normal;font-variant-ligatures:normal;font-variant-numeric:normal"/>
   <path d="m-51.424 87.719-4.0025 14.604h6.443l1.0843-6.9617s3.1955 6.9617 3.1955 6.9617h6.443s-4.9079-8.4326-4.9079-8.4326 4.3069-6.1712 4.3069-6.1712h-4.7152s-3.878 4.7887-3.878 4.7887l0.74587-4.7887h-4.7152z" style="font-feature-settings:normal;font-variant-caps:normal;font-variant-ligatures:normal;font-variant-numeric:normal"/>
   <path d="m-38.24 87.609 0.9459 14.604h6.443l-1.1545-6.3056s5.4343 6.3056 5.4343 6.3056 2.1548-6.3056 2.1548-6.3056 2.1483 6.3056 2.1483 6.3056h6.4198l-6.6971-14.604h-4.6981s-2.0437 4.2241-2.0437 4.2241l-4.2375-4.2241h-4.7152z" style="font-feature-settings:normal;font-variant-caps:normal;font-variant-ligatures:normal;font-variant-numeric:normal"/>
   <path d="m-18.455 87.609-2.3848 1.585 4.9735 10.314 5.6075 2.7049h8.5592s2.1461-2.7049 2.1461-2.7049l-8.2246-10.314-4.4131-1.585h-6.2638z" style="font-feature-settings:normal;font-variant-caps:normal;font-variant-ligatures:normal;font-variant-numeric:normal"/>
   <path d="m-1.9497 87.609s14.244 14.604 14.244 14.604h6.443l-15.972-14.604h-4.7152z" style="font-feature-settings:normal;font-variant-caps:normal;font-variant-ligatures:normal;font-variant-numeric:normal"/>
   <path d="m6.8052 87.609-1.3801 1.585 11.511 10.314 7.3219 2.7049h8.5597l0.4316-2.7049-14.762-10.314-5.4177-1.585h-6.2642z" style="font-feature-settings:normal;font-variant-caps:normal;font-variant-ligatures:normal;font-variant-numeric:normal"/>
  </g>
  <path d="m11.366 90.035h3.3228l10.791 8.2187h-3.9687l-10.145-8.2187z" fill="#2f343f" style="font-feature-settings:normal;font-variant-caps:normal;font-variant-ligatures:normal;font-variant-numeric:normal"/>
  <path d="m0.30416 97.845 3.5864 4.368h7.1639l-4.1611-4.368h-6.5893z" fill="#eaeaeb" style="font-feature-settings:normal;font-variant-caps:normal;font-variant-ligatures:normal;font-variant-numeric:normal"/>
  <path d="m-14.837 88.668h1.9758l6.4166 11.131h-2.3599l-6.0325-11.131z" fill="#2f3400" style="font-feature-settings:normal;font-variant-caps:normal;font-variant-ligatures:normal;font-variant-numeric:normal"/>
 </g>
</svg>
